<svg width="136" height="135.099" xmlns="http://www.w3.org/2000/svg">

 <g>
  <title>background</title>
  <rect fill="none" id="canvas_background" height="402" width="582" y="-1" x="-1"/>
 </g>
 <g>
  <title>Layer 1</title>
  <path fill-opacity="0" id="svg_2" fill="#000000" d="m4.667,67.549c0,-34.98 28.355,-63.334 63.332,-63.334c34.979,0 63.334,28.354 63.334,63.334c0,34.976 -28.355,63.333 -63.334,63.333c-34.977,0 -63.332,-28.357 -63.332,-63.333z"/>
  <path fill-opacity="0" id="svg_3" fill="#000000" d="m112.966,22.947c24.733,24.734 24.735,64.833 0,89.568c-24.732,24.732 -64.834,24.732 -89.568,0l89.568,-89.568z"/>
  <path fill-opacity="0" id="svg_5" fill="#1e3f77" d="m129.405,83.09l-44.666,-44.667l-9.075,9.075l-19.331,-2.664l1.997,19.998l-9.407,9.407l19.003,19.001l0.331,12.998l20.983,20.982c19.749,-7.031 34.98,-23.578 40.165,-44.13z"/>
  <path id="Facebook_Places_3_" fill="#fbad24" d="m92.617,50.709c-0.263,-0.988 -0.798,-2.04 -1.193,-2.961c-4.738,-11.384 -15.088,-15.464 -23.445,-15.464c-11.188,0 -23.511,7.5 -25.156,22.966l0,3.159c0,0.131 0.045,1.315 0.111,1.908c0.922,7.37 6.736,15.202 11.079,22.571c4.672,7.896 9.521,15.662 14.325,23.428c2.961,-5.066 5.912,-10.199 8.807,-15.137c0.789,-1.447 1.705,-2.895 2.495,-4.276c0.525,-0.921 1.531,-1.843 1.991,-2.698c4.672,-8.554 12.192,-17.176 12.192,-25.665l0,-3.488c-0.001,-0.92 -1.14,-4.145 -1.206,-4.343zm-24.434,15.859c-3.289,0 -6.888,-1.645 -8.665,-6.186c-0.265,-0.723 -0.244,-2.171 -0.244,-2.304l0,-2.041c0,-5.789 4.917,-8.422 9.193,-8.422c5.265,0 9.336,4.211 9.336,9.476c0,5.267 -4.356,9.477 -9.62,9.477z"/>
 </g>
</svg>